<?xml version="1.0" encoding="UTF-8" standalone="no"?>
<svg
   xmlns:dc="http://purl.org/dc/elements/1.1/"
   xmlns:cc="http://creativecommons.org/ns#"
   xmlns:rdf="http://www.w3.org/1999/02/22-rdf-syntax-ns#"
   xmlns:svg="http://www.w3.org/2000/svg"
   xmlns="http://www.w3.org/2000/svg"
   xmlns:sodipodi="http://sodipodi.sourceforge.net/DTD/sodipodi-0.dtd"
   xmlns:inkscape="http://www.inkscape.org/namespaces/inkscape"
   inkscape:version="1.0 (4035a4fb49, 2020-05-01)"
   sodipodi:docname="arrow.svg"
   xml:space="preserve"
   style="enable-background:new 0 0 491.996 491.996;"
   viewBox="0 0 491.996 491.996"
   y="0px"
   x="0px"
   id="Layer_1"
   version="1.1"><metadata
   id="metadata43"><rdf:RDF><cc:Work
       rdf:about=""><dc:format>image/svg+xml</dc:format><dc:type
         rdf:resource="http://purl.org/dc/dcmitype/StillImage" /></cc:Work></rdf:RDF></metadata><defs
   id="defs41" /><sodipodi:namedview
   inkscape:current-layer="Layer_1"
   inkscape:window-maximized="1"
   inkscape:window-y="-9"
   inkscape:window-x="-9"
   inkscape:cy="244.82732"
   inkscape:cx="215.61558"
   inkscape:zoom="1.6870056"
   showgrid="false"
   id="namedview39"
   inkscape:window-height="1001"
   inkscape:window-width="1920"
   inkscape:pageshadow="2"
   inkscape:pageopacity="0"
   guidetolerance="10"
   gridtolerance="10"
   objecttolerance="10"
   borderopacity="1"
   bordercolor="#666666"
   pagecolor="#ffffff" />
<g
   id="g6">
	<g
   id="g4">
		<path
   id="path2"
   d="M484.132,124.986l-16.116-16.228c-5.072-5.068-11.82-7.86-19.032-7.86c-7.208,0-13.964,2.792-19.036,7.86l-183.84,183.848    L62.056,108.554c-5.064-5.068-11.82-7.856-19.028-7.856s-13.968,2.788-19.036,7.856l-16.12,16.128    c-10.496,10.488-10.496,27.572,0,38.06l219.136,219.924c5.064,5.064,11.812,8.632,19.084,8.632h0.084    c7.212,0,13.96-3.572,19.024-8.632l218.932-219.328c5.072-5.064,7.856-12.016,7.864-19.224    C491.996,136.902,489.204,130.046,484.132,124.986z" />
	</g>
</g>
<g
   id="g8">
</g>
<g
   id="g10">
</g>
<g
   id="g12">
</g>
<g
   id="g14">
</g>
<g
   id="g16">
</g>
<g
   id="g18">
</g>
<g
   id="g20">
</g>
<g
   id="g22">
</g>
<g
   id="g24">
</g>
<g
   id="g26">
</g>
<g
   id="g28">
</g>
<g
   id="g30">
</g>
<g
   id="g32">
</g>
<g
   id="g34">
</g>
<g
   id="g36">
</g>
<path
   id="path868"
   d="m 242.20092,390.59895 c -1.59937,-0.26778 -4.66693,-1.32132 -6.81681,-2.3412 -3.67366,-1.74273 -10.62608,-8.58486 -115.53177,-113.69887 C 58.459756,213.04439 7.0665599,161.18092 5.6452404,159.30674 1.7931912,154.22735 0.40081717,149.45139 0.70369536,142.35682 c 0.21218021,-4.97007 0.50413884,-6.27085 2.21611984,-9.87356 1.7160842,-3.61135 3.4415989,-5.62426 13.3077798,-15.5243 9.720932,-9.75429 11.884991,-11.62982 15.189017,-13.16386 7.457486,-3.46247 15.181281,-3.53932 22.821501,-0.22706 3.307164,1.43375 10.156132,8.13444 97.657327,95.54309 l 94.10072,94.00119 93.80618,-93.69128 c 81.33972,-81.24009 94.24417,-93.89776 97.10189,-95.24497 4.9357,-2.32682 8.32423,-2.98962 13.81178,-2.70159 4.15052,0.21784 5.67099,0.60959 9.61943,2.47843 4.29436,2.03257 5.59431,3.13196 15.42063,13.04152 9.45875,9.53888 11.00188,11.37007 13.01643,15.44625 2.05271,4.15337 2.31013,5.18726 2.5272,10.15032 0.2892,6.61251 -1.09484,12.0412 -4.1741,16.37224 -2.8834,4.05556 -224.19717,225.55701 -227.38731,227.58014 -5.56123,3.52683 -11.91692,4.9966 -17.53737,4.05557 z"
   style="fill:#9efff5;fill-rule:evenodd;stroke-width:0.5937;fill-opacity:1" /></svg>
