<?xml version="1.0" encoding="utf-8"?>
<!-- Generator: Adobe Illustrator 24.1.2, SVG Export Plug-In . SVG Version: 6.00 Build 0)  -->
<svg version="1.1"
	 id="svg833" xmlns:cc="http://creativecommons.org/ns#" xmlns:dc="http://purl.org/dc/elements/1.1/" xmlns:inkscape="http://www.inkscape.org/namespaces/inkscape" xmlns:rdf="http://www.w3.org/1999/02/22-rdf-syntax-ns#" xmlns:sodipodi="http://sodipodi.sourceforge.net/DTD/sodipodi-0.dtd" xmlns:svg="http://www.w3.org/2000/svg"
	 xmlns="http://www.w3.org/2000/svg" xmlns:xlink="http://www.w3.org/1999/xlink" x="0px" y="0px" viewBox="0 0 772.9 772.9"
	 style="enable-background:new 0 0 772.9 772.9;" xml:space="preserve">
<style type="text/css">
	.st0{fill:#9EFFF5;}
	.st1{display:none;fill:#9EFFF5;stroke:#000000;}
	.st2{fill:none;}
	.st3{enable-background:new    ;}
	.st4{display:none;fill:none;}
</style>
<sodipodi:namedview  bordercolor="#666666" borderopacity="1" gridtolerance="10" guidetolerance="10" id="namedview835" inkscape:current-layer="g841" inkscape:cx="223.64187" inkscape:cy="289.47766" inkscape:pageopacity="0" inkscape:pageshadow="2" inkscape:window-height="1001" inkscape:window-maximized="1" inkscape:window-width="1920" inkscape:window-x="-9" inkscape:window-y="-9" inkscape:zoom="1.3365539" objecttolerance="10" pagecolor="#ffffff" showgrid="false">
	</sodipodi:namedview>
<g id="g841" inkscape:groupmode="layer" inkscape:label="Image">
	
		<image style="display:none;overflow:visible;enable-background:new    ;" width="623" height="619" id="image843" xlink:href="E386BBCC.jpg"  inkscape:export-xdpi="500" inkscape:export-ydpi="500" transform="matrix(0.9851 0 0 0.9851 80.6875 0.2962)">
	</image>
	<path id="path845" class="st0" d="M121.9,456.3c51.1,28.7,51.8,30.2,51.8,30.2V184.3l214.5-123l212.3,120.4l0.7,245.8L388.6,548.8
		l-111.9-64.2l-1.5-242.1l112.3-64.9l112.3,64.5l1.1,125.7l-112.6,64.9l-12.7-8.2l0.7-123.8l63.4-36.2L387.9,232L323,268.6
		l0.4,188.7l65.3,36.6l163.8-94.4l-0.7-189.1l-163.4-93.6l-166,93.6l1.1,304.4l163.8,95.5L654,456.6l-0.4-304L386.4,0.1L121.2,152.6
		L121.9,456.3z"/>
	<g id="path888">
		<path class="st1" d="M269.9,428.5"/>
	</g>
</g>
<image style="display:none;overflow:visible;enable-background:new    ;" width="1025" height="1025" xlink:href="E386BBCD.jpeg"  transform="matrix(0.999 0 0 0.999 -152.0299 -231.6264)">
</image>
<g>
	<rect x="-77.2" y="650.6" class="st2" width="927.1" height="173.9"/>
</g>
<g>
	<rect x="-19.1" y="650.6" class="st2" width="808.9" height="173.9"/>
</g>
<g class="st3">
	<path class="st0" d="M58.1,772H37.2c-14.6,0-23.8-8.4-26.2-22c-0.2-0.6-0.2-1-0.2-1.3c0-4,3.4-6.5,6.8-6.5c2.8,0,5.5,1.7,6.3,5.5
		c1.5,7.6,5.5,11,13.3,11h20.9c8.4,0,13.3-4.6,13.3-13.3c0-7.4-3.4-10.6-13.3-10.6H37c-12.5,0-25.5-3.6-25.5-21.1
		c0-16,10.8-24.1,25.3-24.1h21.3c11.8,0,18.2,3.6,23,13.5c0.6,1.1,0.6,2.1,0.6,3c0,3.8-3.4,6.5-6.8,6.5c-2.3,0-4.6-1.1-5.9-3.8
		c-2.3-4.6-3.4-5.9-10.8-5.9H36.8c-8.5,0-12,3.4-12,10.8c0,5.7,1.5,7.8,12.2,7.8h21.1c14.3,0,26.6,6.5,26.6,23.9
		C84.7,761.9,73.3,772,58.1,772z"/>
	<path class="st0" d="M149.1,772h-2.7c-15.2,0-26.6-9.9-26.6-26.6v-42.6h-8.6c-4.4,0-6.6-3.2-6.6-6.7c0-3.2,2.3-6.7,6.6-6.7h8.6V663
		c0-4.4,3.2-6.7,6.6-6.7c3.2,0,6.6,2.3,6.6,6.7v26.6h15.6c4.4,0,6.6,3.2,6.6,6.7c0,3.2-2.3,6.7-6.6,6.7H133v42.6
		c0,8.9,4.9,13.3,13.3,13.3h2.7c4.4,0,6.6,3.2,6.6,6.7C155.8,768.6,153.5,772,149.1,772z"/>
	<path class="st0" d="M245.8,772.6c-2.7,0-5.3-1.5-6.3-4.2c-4,2.1-8.7,3.4-13.7,3.4H205c-15.2,0-26.6-10.1-26.6-26.6v-49.6
		c0-4.4,3.2-6.6,6.6-6.6c3.2,0,6.7,2.3,6.7,6.6v49.6c0,8.9,4.9,13.3,13.3,13.3h20.9c8,0,13.3-4.6,13.3-13.3v-49.8
		c0-4.4,3.2-6.7,6.6-6.7c3.2,0,6.7,2.3,6.7,6.7v70.5C252.5,770.3,249.1,772.6,245.8,772.6z"/>
	<path class="st0" d="M328.3,771.8h-20.9c-14.8,0-26.6-9.9-26.6-26.6v-29.1c0-16.7,11.8-26.6,26.6-26.6h20.9c4.9,0,9.5,1.1,13.3,3
		v-35.3c0-4.4,3.2-6.7,6.6-6.7c3.2,0,6.7,2.3,6.7,6.7v88C354.9,761.8,343.5,771.8,328.3,771.8z M341.6,716.2
		c0-8.9-4.9-13.3-13.3-13.3h-20.9c-8,0-13.3,4.6-13.3,13.3v29.1c0,8.7,5.3,13.3,13.3,13.3h20.9c8.4,0,13.3-4.4,13.3-13.3V716.2z"/>
	<path class="st0" d="M394.2,678.2c-7.6,0-13.5-5.9-13.5-13.5s5.9-13.7,13.5-13.7s13.7,6.1,13.7,13.7
		C407.9,672.3,401.8,678.2,394.2,678.2z M394.2,772.8c-3.2,0-6.7-2.3-6.7-6.7v-70.3c0-4.4,3.2-6.7,6.7-6.7c3.2,0,6.7,2.3,6.7,6.7
		v70.3C400.9,770.5,397.6,772.8,394.2,772.8z"/>
	<path class="st0" d="M479.3,771.8h-20.9c-14.8,0-26.6-9.9-26.6-26.6v-29.1c0-16.7,11.8-26.6,26.6-26.6h20.9
		c15.2,0,26.6,10.1,26.6,26.6v29.1C505.9,761.8,494.5,771.8,479.3,771.8z M492.6,716.2c0-8.9-4.9-13.3-13.3-13.3h-20.9
		c-8,0-13.3,4.6-13.3,13.3v29.1c0,8.7,5.3,13.3,13.3,13.3h20.9c8.4,0,13.3-4.4,13.3-13.3V716.2z"/>
</g>
<g class="st3">
	<path class="st0" d="M649.2,771.8h-60.8c-4.8,0-7.4-2.5-7.4-5.7c0-1.7,0.8-3.6,2.5-5.5l47.7-51.7c7-7.8,11.4-13.5,11.4-23
		c0-8.7-4.9-13.3-13.3-13.3h-18.8c-8,0-13.3,4.6-13.3,13.3c0,4.4-3.2,6.6-6.6,6.6c-3.2,0-6.7-2.3-6.7-6.6
		c0-16.7,11.8-26.6,26.6-26.6h18.8c15.2,0,26.6,10.1,26.6,26.6c0,14.8-7.2,23.9-14.8,32.1l-37.4,40.5h45.6c4.4,0,6.7,3.2,6.7,6.6
		C655.9,768.4,653.6,771.8,649.2,771.8z"/>
</g>
<g class="st3">
	<path class="st0" d="M756.5,771.8h-60.8c-4.8,0-7.4-2.5-7.4-5.7c0-1.7,0.8-3.6,2.5-5.5l47.7-51.7c7-7.8,11.4-13.5,11.4-23
		c0-8.7-4.9-13.3-13.3-13.3h-18.8c-8,0-13.3,4.6-13.3,13.3c0,4.4-3.2,6.6-6.6,6.6c-3.2,0-6.7-2.3-6.7-6.6
		c0-16.7,11.8-26.6,26.6-26.6h18.8c15.2,0,26.6,10.1,26.6,26.6c0,14.8-7.2,23.9-14.8,32.1L711,758.5h45.6c4.4,0,6.7,3.2,6.7,6.6
		C763.2,768.4,760.9,771.8,756.5,771.8z"/>
</g>
<rect x="-132" y="186" class="st4" width="4" height="2"/>
</svg>
